<svg width="233" height="103" viewBox="0 0 233 103" fill="none" xmlns="http://www.w3.org/2000/svg">
<path d="M15.7468 43.81C18.5868 40.71 15.0968 38.15 14.6668 34.99C12.8468 38.45 12.5168 41.5 15.7468 43.81Z" fill="#EA2D2D"/>
<path d="M13.6469 46.71C18.6463 47.9425 23.488 49.7443 28.0769 52.08C32.2112 54.2122 35.8979 57.1181 38.9369 60.64C40.2269 59.47 41.5469 58.2 42.9369 57.03C45.1896 55.1539 47.6252 53.509 50.2069 52.12C53.6893 50.2531 57.3512 48.7421 61.1369 47.61C66.3869 46 71.6769 44.97 77.0569 47.35C76.5267 46.742 75.9061 46.2192 75.2169 45.8C72.2769 44.17 69.0769 44.29 65.9669 44.86L65.0269 45.05C65.2746 44.1806 65.4124 43.2836 65.4369 42.38C65.4369 39.71 63.6569 37.57 60.8569 36.65C60.6969 38.79 61.0069 40.99 60.2669 42.91C59.1469 45.8 56.1069 46.68 52.9169 45.55C49.7269 44.42 48.7169 41.98 50.3369 39.27C51.208 37.9625 52.1846 36.7283 53.2569 35.58C56.5769 31.7 56.3369 28.82 52.0169 25.02C52.0769 27.58 52.0169 29.96 48.7869 31.84C47.2669 25.95 43.5269 21.43 38.8569 17.36C35.4369 14.36 31.4069 11.7 31.2369 7C28.7769 11.11 27.7869 15 31.4469 19C34.8069 22.68 36.8669 26.85 35.9069 31.62C35.6318 32.9521 34.8949 34.1442 33.8264 34.9858C32.7579 35.8275 31.4263 36.2646 30.0669 36.22C28.6545 36.2614 27.2782 35.7703 26.2111 34.844C25.1441 33.9178 24.4644 32.6242 24.3069 31.22C24.2308 29.8177 24.2308 28.4123 24.3069 27.01C21.1269 29.89 18.9469 32.92 20.8969 36.56C22.9969 40.48 22.3569 43.84 20.8369 47.06C19.9169 46.72 18.9869 46.4 18.0469 46.06C14.5092 44.862 10.7772 44.3429 7.04686 44.53C4.48686 44.7 2.14686 45.84 1.40686 47.36C5.40686 45.31 9.60686 45.55 13.6669 46.63L13.6469 46.71Z" fill="#EA2D2D"/>
<path d="M76.1668 49.88C74.7468 49.88 73.3168 49.61 71.9068 49.71C64.9068 50.23 58.5468 52.86 52.3668 55.94C48.65 57.9174 45.1537 60.284 41.9368 63C38.9368 65.41 38.4568 65.21 35.4168 62.56C21.5268 50.4 6.8868 49.14 1.8168 49.84C0.2568 50.06 -0.1332 50.75 0.0368 52.16C0.8168 58.48 1.3468 64.84 2.3868 71.16C3.1668 75.87 4.5468 80.48 5.7168 85.16C5.88904 85.7731 6.19812 86.3391 6.62076 86.8154C7.0434 87.2917 7.56859 87.666 8.1568 87.91C14.2472 90.9001 20.6632 93.1752 27.2768 94.69C28.5168 94.99 29.7768 95.25 31.0368 95.49H31.0968C38.8568 97.36 40.1968 97.72 53.6468 93.9C54.9868 93.55 56.3068 93.16 57.6468 92.75L57.9768 92.65C62.1106 91.3534 66.1254 89.704 69.9768 87.72C70.8358 87.2189 71.5307 86.4789 71.9768 85.59C72.6096 84.3207 73.0799 82.9768 73.3768 81.59C74.4268 76.66 75.5368 71.73 76.2968 66.74C77.0368 61.91 77.3468 57.01 77.8768 52.15C78.0568 50.7 77.6568 49.91 76.1668 49.88Z" fill="#EA2D2D"/>
<path d="M26.3 86.34C22.86 78.67 21.15 74.89 17.71 67.46V83.59L13 82.08V58L18 59.38C21.2 66.31 22.81 69.82 26 76.94V61.59L30.71 62.89V87.76L26.3 86.34Z" fill="white"/>
<path d="M55.58 64.76V71.39L63.65 68.84V72.3L55.58 74.9V85.9L50 87.77V62.9L66.53 58V61.44L55.58 64.76Z" fill="white"/>
<path d="M107.019 19.126H113.039V50H106.589L94.033 27.984L93.947 50H87.927V19.126H94.721L106.933 40.626L107.019 19.126ZM140.211 38.562C140.211 42.4893 139.036 45.528 136.685 47.678C134.564 49.6273 131.84 50.602 128.515 50.602C125.218 50.602 122.509 49.6273 120.388 47.678C118.009 45.4993 116.819 42.4607 116.819 38.562C116.819 34.6347 117.994 31.596 120.345 29.446C122.466 27.4967 125.19 26.522 128.515 26.522C131.84 26.522 134.564 27.4967 136.685 29.446C139.036 31.596 140.211 34.6347 140.211 38.562ZM134.019 38.562C134.019 36.67 133.689 35.1507 133.03 34.004C132.113 32.3987 130.608 31.596 128.515 31.596C126.451 31.596 124.96 32.3843 124.043 33.961C123.355 35.165 123.011 36.6987 123.011 38.562C123.011 40.454 123.341 41.9733 124 43.12C124.917 44.7253 126.422 45.528 128.515 45.528C130.579 45.528 132.07 44.7397 132.987 43.163C133.675 41.959 134.019 40.4253 134.019 38.562ZM162.588 27.124L154.332 50H147.968L139.798 27.124H146.506L151.236 43.98L156.138 27.124H162.588ZM177.992 43.292H184.184C183.467 45.8433 182.091 47.7497 180.056 49.011C178.364 50.0717 176.386 50.602 174.122 50.602C170.624 50.602 167.93 49.699 166.038 47.893C163.859 45.8003 162.77 42.518 162.77 38.046C162.77 34.434 163.787 31.5673 165.823 29.446C167.715 27.4967 170.338 26.522 173.692 26.522C176.558 26.522 178.909 27.3103 180.744 28.887C183.209 31.0083 184.442 34.4053 184.442 39.078V40.196H168.79C168.99 42.2027 169.521 43.636 170.381 44.496C171.241 45.356 172.488 45.786 174.122 45.786C175.039 45.786 175.856 45.571 176.573 45.141C177.318 44.711 177.791 44.0947 177.992 43.292ZM168.962 36.24H178.25C178.078 34.5487 177.519 33.2873 176.573 32.456C175.77 31.768 174.781 31.424 173.606 31.424C170.882 31.424 169.334 33.0293 168.962 36.24ZM193.309 19.126V50H187.289V19.126H193.309Z" fill="#EA2D2D"/>
<path d="M94.635 80.014V93H88.185V62.126H110.201V67.544H94.635V74.51H108.223V80.014H94.635ZM113.366 70.124H119.386V93H113.366V70.124ZM119.386 61.782V67.372H113.366V61.782H119.386ZM123.598 93V70.124H129.36V74.08C130.277 72.5607 131.051 71.5143 131.682 70.941C132.742 69.995 134.09 69.522 135.724 69.522C136.24 69.522 136.641 69.5507 136.928 69.608V75.714C136.67 75.6853 136.354 75.671 135.982 75.671C135.638 75.6423 135.38 75.628 135.208 75.628C133.086 75.628 131.567 76.2157 130.65 77.391C129.962 78.2797 129.618 79.498 129.618 81.046V93H123.598ZM152.418 86.292H158.61C157.894 88.8433 156.518 90.7497 154.482 92.011C152.791 93.0717 150.813 93.602 148.548 93.602C145.051 93.602 142.356 92.699 140.464 90.893C138.286 88.8003 137.196 85.518 137.196 81.046C137.196 77.434 138.214 74.5673 140.249 72.446C142.141 70.4967 144.764 69.522 148.118 69.522C150.985 69.522 153.336 70.3103 155.17 71.887C157.636 74.0083 158.868 77.4053 158.868 82.078V83.196H143.216C143.417 85.2027 143.947 86.636 144.807 87.496C145.667 88.356 146.914 88.786 148.548 88.786C149.466 88.786 150.283 88.571 150.999 88.141C151.745 87.711 152.218 87.0947 152.418 86.292ZM143.388 79.24H152.676C152.504 77.5487 151.945 76.2873 150.999 75.456C150.197 74.768 149.208 74.424 148.032 74.424C145.309 74.424 143.761 76.0293 143.388 79.24ZM167.908 86.722V93H161.458V86.722H167.908ZM192.673 77.176V93H186.653V79.068C186.653 77.8067 186.481 76.8607 186.137 76.23C185.535 75.1407 184.417 74.596 182.783 74.596C181.407 74.596 180.275 75.0547 179.386 75.972C178.498 76.8893 178.053 78.1793 178.053 79.842V93H172.033V70.124H177.795V73.478C178.483 72.3887 179.2 71.5573 179.945 70.984C181.235 70.0093 182.841 69.522 184.761 69.522C187.112 69.522 188.99 70.1527 190.394 71.414C191.914 72.79 192.673 74.7107 192.673 77.176ZM210.888 86.292H217.08C216.364 88.8433 214.988 90.7497 212.952 92.011C211.261 93.0717 209.283 93.602 207.018 93.602C203.521 93.602 200.826 92.699 198.934 90.893C196.756 88.8003 195.666 85.518 195.666 81.046C195.666 77.434 196.684 74.5673 198.719 72.446C200.611 70.4967 203.234 69.522 206.588 69.522C209.455 69.522 211.806 70.3103 213.64 71.887C216.106 74.0083 217.338 77.4053 217.338 82.078V83.196H201.686C201.887 85.2027 202.417 86.636 203.277 87.496C204.137 88.356 205.384 88.786 207.018 88.786C207.936 88.786 208.753 88.571 209.469 88.141C210.215 87.711 210.688 87.0947 210.888 86.292ZM201.858 79.24H211.146C210.974 77.5487 210.415 76.2873 209.469 75.456C208.667 74.768 207.678 74.424 206.502 74.424C203.779 74.424 202.231 76.0293 201.858 79.24ZM226.722 63.932V70.124H230.506V74.424H226.722V86.808C226.722 87.582 226.851 88.098 227.109 88.356C227.395 88.5853 228.098 88.7 229.216 88.7L230.506 88.614V93.172C230.047 93.2293 229.531 93.258 228.958 93.258C228.413 93.258 227.983 93.258 227.668 93.258H226.894C224.428 93.258 222.737 92.8137 221.82 91.925C221.074 91.2083 220.702 89.99 220.702 88.27V74.424H217.606V70.124H220.702V63.932H226.722Z" fill="#EA2D2D"/>
</svg>
